<?xml version="1.0" encoding="utf-8"?>
<!-- Generator: Adobe Illustrator 23.0.2, SVG Export Plug-In . SVG Version: 6.00 Build 0)  -->
<svg version="1.1" id="Layer_1" xmlns="http://www.w3.org/2000/svg" xmlns:xlink="http://www.w3.org/1999/xlink" x="0px" y="0px"
	 viewBox="0 0 138.986 31.359" style="enable-background:new 0 0 138.986 31.359;" xml:space="preserve">
<style type="text/css">
	.st0{fill:#FFFFFF;}
</style>
<g>
	<path class="st0" d="M0.212,18.486l1.753-0.276V1.997L0,1.742L0.106,0h12.24l-0.297,4.906L9.606,4.842L9.458,1.763H5.67v7.29h1.65
		l0.382-1.678l1.715,0.042v5.034H7.723l-0.404-1.72H5.67v7.734h3.809L9.84,15.11l2.57,0.085l0.191,5.118H0.128L0.212,18.486z"/>
	<path class="st0" d="M13.722,20.313l0.064-1.508l1.376-0.276V8.307l-1.609-0.149V6.629l4.025-0.573l0.303,0.871V7.5
		c0.977-1.02,2.145-1.614,3.632-1.614c2.188,0,3.802,1.317,3.802,3.951v8.693l1.46,0.276l-0.085,1.508h-4.747v-9.745
		c0-1.402-0.515-2.188-1.769-2.188c-0.425,0-0.728,0.085-1.067,0.191c-0.213,0.17-0.404,0.425-0.574,0.659v9.298l1.444,0.276
		l-0.106,1.508L13.722,20.313z"/>
	<path class="st0" d="M90.515,20.313l0.064-1.508l1.376-0.276V8.307l-1.609-0.149V6.629l4.025-0.573l0.302,0.871V7.5
		c0.977-1.02,2.145-1.614,3.632-1.614c2.188,0,3.802,1.317,3.802,3.951v8.693l1.46,0.276l-0.085,1.508h-4.747v-9.745
		c0-1.402-0.516-2.188-1.769-2.188c-0.424,0-0.727,0.085-1.067,0.191c-0.212,0.17-0.404,0.425-0.573,0.659v9.298l1.444,0.276
		l-0.106,1.508L90.515,20.313z"/>
	<path class="st0" d="M34.364,20.031c-0.552,0.234-1.55,0.488-2.846,0.488c-1.699,0-3.281-0.764-3.281-3.25V8.3l-1.614-0.255
		l0.064-1.784l1.827-0.085L29.3,3.457l2.326-0.107v2.91h2.528l-0.175,1.784L31.671,8.3v8.948c0,0.743,0.404,1.232,1.168,1.232h1.375
		L34.364,20.031z"/>
	<path class="st0" d="M129.5,20.313l0.064-1.466l1.296-0.297V8.308l-1.529-0.149v-1.53l4.157-0.573l0.276,0.998v0.319
		c1.084-0.807,2.57-1.338,4.334-1.338l0.616,0.531l-0.425,3.845l-2.294-0.085l-0.233-2.06c-0.531,0.085-1.041,0.234-1.466,0.531
		v9.754l1.445,0.297l-0.106,1.466H129.5L129.5,20.313z"/>
	<path class="st0" d="M69.628,20.313l0.064-1.466l1.296-0.297V8.308l-1.53-0.149v-1.53l4.157-0.573l0.276,0.998v0.319
		c1.084-0.807,2.57-1.338,4.334-1.338l0.616,0.531l-0.425,3.845l-2.294-0.085l-0.233-2.06c-0.531,0.085-1.041,0.234-1.466,0.531
		v9.754l1.445,0.297l-0.106,1.466h-6.134L69.628,20.313z"/>
	<path class="st0" d="M35.377,20.313l0.064-1.466l1.296-0.297V8.308l-1.53-0.149v-1.53l4.158-0.573l0.276,0.998v0.319
		c1.083-0.807,2.57-1.338,4.333-1.338l0.616,0.531l-0.425,3.845l-2.294-0.085l-0.234-2.06c-0.531,0.085-1.041,0.234-1.466,0.531
		v9.754l1.445,0.297l-0.106,1.466h-6.133L35.377,20.313z"/>
	<path class="st0" d="M48.555,14.084c0,2.442,1.056,4.333,3.173,4.333c1.083,0,1.954-0.234,2.974-0.701l0.574,1.338
		c-1.041,0.828-2.555,1.465-4.467,1.465c-3.701,0-5.839-3.207-5.839-7.328c0-3.505,1.54-7.34,5.799-7.34
		c3.699,0,5.103,3.432,5.103,7.255l-0.361,0.913L48.555,14.084z M48.491,12.448l4.275-0.191c-0.085-1.7-0.437-4.409-2.11-4.409
		c-0.397,0-0.683,0.064-1.193,0.34C48.775,9.356,48.482,11.467,48.491,12.448z"/>
	<path class="st0" d="M107.619,14.084c0,2.442,1.056,4.333,3.173,4.333c1.084,0,1.954-0.234,2.974-0.701l0.573,1.338
		c-1.04,0.828-2.555,1.465-4.467,1.465c-3.701,0-5.839-3.207-5.839-7.328c0-3.505,1.539-7.34,5.799-7.34
		c3.699,0,5.103,3.432,5.103,7.255l-0.361,0.913L107.619,14.084z M107.555,12.448l4.275-0.191c-0.085-1.7-0.437-4.409-2.11-4.409
		c-0.397,0-0.683,0.064-1.193,0.34C107.839,9.356,107.547,11.467,107.555,12.448z"/>
	<path class="st0" d="M82.805,14.084c0,2.442,1.056,4.333,3.173,4.333c1.084,0,1.954-0.234,2.974-0.701l0.573,1.338
		c-1.04,0.828-2.555,1.465-4.467,1.465c-3.701,0-5.839-3.207-5.839-7.328c0-3.505,1.539-7.34,5.798-7.34
		c3.699,0,5.103,3.432,5.103,7.255l-0.361,0.913L82.805,14.084z M82.741,12.448l4.275-0.191c-0.085-1.7-0.437-4.409-2.11-4.409
		c-0.397,0-0.683,0.064-1.193,0.34C83.025,9.356,82.733,11.467,82.741,12.448z"/>
	<path class="st0" d="M124.544,20.313l-0.361-1.211c-0.935,0.892-1.848,1.423-3.271,1.423c-2.188,0-4.147-1.104-4.147-4.121V7.942
		l-1.609-0.149V6.455l4.619-0.531l0.361,1.211v8.845c0,1.551,0.625,2.358,1.88,2.358c0.357,0,0.808-0.043,1.211-0.212
		c0.233-0.234,0.446-0.51,0.637-0.786V7.942l-1.657-0.149V6.455l4.667-0.531l0.361,1.211v11.394l1.439,0.276l-0.17,1.508
		L124.544,20.313z"/>
	<path class="st0" d="M62.79,18.486c-0.743,0-1.317-0.128-1.784-0.382V9.119c0.191-0.297,0.425-0.573,0.659-0.828
		c0.425-0.149,0.825-0.212,1.271-0.212c1.91,0,2.226,1.935,2.226,5.398c0,3.335-0.496,4.253-0.629,4.628
		C64.022,18.359,63.47,18.486,62.79,18.486z M68.487,12.849c0-4.289-1.274-6.984-4.435-6.984c-2.102,0-3.101,1.213-3.513,1.725
		V7.123l-0.361-1.211l-4.152,0.574V7.95l1.609,0.212v17.325l-1.36,0.276l-0.064,1.445h6.133l0.106-1.445l-1.444-0.276v-5.494
		c0.574,0.319,1.396,0.531,2.289,0.531C68.44,20.526,68.487,15.263,68.487,12.849z"/>
	<path class="st0" d="M137.841,18.325c0.699,0,1.145,0.414,1.145,0.996c0,0.587-0.458,0.996-1.145,0.996
		c-0.676,0-1.146-0.409-1.146-0.996C136.695,18.733,137.159,18.325,137.841,18.325z M137.841,20.005
		c0.476,0,0.787-0.281,0.787-0.685s-0.311-0.685-0.787-0.685c-0.47,0-0.782,0.276-0.782,0.685
		C137.059,19.724,137.371,20.005,137.841,20.005z M137.342,19.77l0.006-0.138l0.118-0.026v-0.613l-0.135-0.015l0.006-0.138h0.546
		c0.235,0,0.453,0.076,0.447,0.281c-0.006,0.143-0.088,0.225-0.2,0.271c0.059,0.092,0.141,0.189,0.2,0.225l0.082,0.015L138.4,19.77
		h-0.276c-0.094-0.077-0.182-0.179-0.264-0.342h-0.088v0.179l0.117,0.026l-0.011,0.138h-0.536L137.342,19.77z M137.77,19.009v0.266
		h0.1c0.135,0,0.165-0.051,0.165-0.128c0-0.117-0.088-0.138-0.2-0.138H137.77z"/>
	<path class="st0" d="M112.019,31.359h-0.724v-7.113h0.724V31.359z"/>
	<path class="st0" d="M119.203,30.305h0.02v-6.059h0.724v7.113h-0.904l-4.14-6.119h-0.02v6.119h-0.724v-7.113h0.904L119.203,30.305z
		"/>
	<path class="st0" d="M122.085,24.246h2.361c0.441,0,0.886,0.074,1.331,0.221s0.848,0.37,1.206,0.668
		c0.357,0.299,0.647,0.67,0.869,1.115c0.221,0.446,0.331,0.964,0.331,1.553c0,0.597-0.11,1.115-0.331,1.558
		c-0.222,0.441-0.512,0.812-0.869,1.109c-0.358,0.299-0.761,0.521-1.206,0.669s-0.89,0.221-1.331,0.221h-2.361L122.085,24.246z
		 M122.809,30.717h1.437c0.536,0,1.003-0.084,1.401-0.252c0.398-0.167,0.729-0.387,0.99-0.658s0.457-0.58,0.587-0.929
		c0.131-0.349,0.196-0.707,0.196-1.075s-0.065-0.727-0.196-1.075c-0.13-0.348-0.326-0.658-0.587-0.93
		c-0.262-0.271-0.592-0.49-0.99-0.657c-0.398-0.168-0.865-0.252-1.401-0.252h-1.437V30.717z"/>
	<path class="st0" d="M130.666,31.359h-0.724v-7.113h0.724V31.359z"/>
	<path class="st0" d="M132.756,31.359h-0.794l3.074-7.113h0.703l3.055,7.113h-0.804l-0.784-1.869h-3.677L132.756,31.359z
		 M133.801,28.827h3.135l-1.567-3.777L133.801,28.827z"/>
</g>
</svg>
